<svg class="svg" aria-hidden="true" xmlns="http://www.w3.org/2000/svg" viewBox="0 0 38 57"><path fill="#00b6ff" fill-opacity="1" fill-rule="nonzero" stroke="none" d="M19 28.5c0-5.247 4.253-9.5 9.5-9.5 5.247 0 9.5 4.253 9.5 9.5 0 5.247-4.253 9.5-9.5 9.5-5.247 0-9.5-4.253-9.5-9.5"></path><path fill="#24cb71" fill-opacity="1" fill-rule="nonzero" stroke="none" d="M0 47.5C0 42.253 4.253 38 9.5 38H19v9.5c0 5.247-4.253 9.5-9.5 9.5C4.253 57 0 52.747 0 47.5"></path><path fill="#ff7237" fill-opacity="1" fill-rule="nonzero" stroke="none" d="M19 0v19h9.5c5.247 0 9.5-4.253 9.5-9.5C38 4.253 33.747 0 28.5 0z"></path><path fill="#ff3737" fill-opacity="1" fill-rule="nonzero" stroke="none" d="M0 9.5C0 14.747 4.253 19 9.5 19H19V0H9.5C4.253 0 0 4.253 0 9.5"></path><path fill="#874fff" fill-opacity="1" fill-rule="nonzero" stroke="none" d="M0 28.5C0 33.747 4.253 38 9.5 38H19V19H9.5C4.253 19 0 23.253 0 28.5"></path></svg>