<svg xmlns="http://www.w3.org/2000/svg" xmlns:xlink="http://www.w3.org/1999/xlink" width="329" zoomAndPan="magnify" viewBox="0 0 246.75 205.499994" height="274" preserveAspectRatio="xMidYMid meet" version="1.0"><defs><clipPath id="44abe4ce19"><path d="M 55.519531 68 L 190.941406 68 L 190.941406 137 L 55.519531 137 Z M 55.519531 68 " clip-rule="nonzero"/></clipPath><clipPath id="7b7c8aff53"><path d="M 55.519531 0.84375 L 190.941406 0.84375 L 190.941406 69 L 55.519531 69 Z M 55.519531 0.84375 " clip-rule="nonzero"/></clipPath><clipPath id="a58180306d"><path d="M 55.519531 136 L 124 136 L 124 204.347656 L 55.519531 204.347656 Z M 55.519531 136 " clip-rule="nonzero"/></clipPath></defs><g clip-path="url(#44abe4ce19)"><path fill="#24a8ff" d="M 190.941406 136.492188 L 55.519531 136.492188 L 55.519531 68.699219 L 123.230469 68.699219 Z M 190.941406 136.492188 " fill-opacity="1" fill-rule="nonzero"/></g><g clip-path="url(#7b7c8aff53)"><path fill="#8ddcff" d="M 190.941406 0.90625 L 55.519531 0.90625 L 123.230469 68.699219 L 190.941406 68.699219 Z M 190.941406 0.90625 " fill-opacity="1" fill-rule="nonzero"/></g><g clip-path="url(#a58180306d)"><path fill="#054eff" d="M 123.230469 136.492188 L 123.230469 204.289062 L 55.519531 136.492188 Z M 123.230469 136.492188 " fill-opacity="1" fill-rule="nonzero"/></g></svg>