<svg xmlns="http://www.w3.org/2000/svg" xmlns:xlink="http://www.w3.org/1999/xlink" width="329" zoomAndPan="magnify" viewBox="0 0 246.75 205.499994" height="274" preserveAspectRatio="xMidYMid meet" version="1.0"><defs><clipPath id="ce4c2acad6"><path d="M 49.546875 37.84375 L 195.441406 37.84375 L 195.441406 183.738281 L 49.546875 183.738281 Z M 49.546875 37.84375 " clip-rule="nonzero"/></clipPath></defs><g clip-path="url(#ce4c2acad6)"><path fill="#ffffff" d="M 195.441406 110.789062 C 195.441406 111.984375 195.414062 113.175781 195.355469 114.371094 C 195.296875 115.5625 195.207031 116.753906 195.089844 117.941406 C 194.972656 119.128906 194.828125 120.3125 194.652344 121.496094 C 194.476562 122.675781 194.273438 123.851562 194.039062 125.023438 C 193.808594 126.191406 193.546875 127.355469 193.257812 128.515625 C 192.964844 129.671875 192.648438 130.824219 192.300781 131.964844 C 191.953125 133.109375 191.582031 134.242188 191.179688 135.367188 C 190.777344 136.488281 190.347656 137.605469 189.890625 138.707031 C 189.433594 139.808594 188.949219 140.902344 188.4375 141.980469 C 187.929688 143.058594 187.390625 144.125 186.828125 145.179688 C 186.265625 146.230469 185.675781 147.269531 185.0625 148.292969 C 184.449219 149.316406 183.8125 150.324219 183.148438 151.316406 C 182.484375 152.3125 181.796875 153.285156 181.085938 154.246094 C 180.375 155.203125 179.640625 156.144531 178.882812 157.066406 C 178.125 157.992188 177.347656 158.894531 176.546875 159.777344 C 175.742188 160.664062 174.921875 161.527344 174.078125 162.371094 C 173.230469 163.214844 172.367188 164.039062 171.484375 164.839844 C 170.597656 165.644531 169.695312 166.421875 168.773438 167.179688 C 167.847656 167.9375 166.910156 168.671875 165.949219 169.382812 C 164.992188 170.09375 164.015625 170.78125 163.023438 171.445312 C 162.03125 172.109375 161.019531 172.746094 159.996094 173.359375 C 158.972656 173.972656 157.933594 174.5625 156.882812 175.125 C 155.828125 175.6875 154.761719 176.222656 153.683594 176.734375 C 152.605469 177.246094 151.511719 177.730469 150.410156 178.183594 C 149.308594 178.640625 148.195312 179.070312 147.070312 179.472656 C 145.945312 179.875 144.8125 180.25 143.671875 180.597656 C 142.527344 180.945312 141.378906 181.261719 140.21875 181.550781 C 139.0625 181.84375 137.898438 182.105469 136.726562 182.335938 C 135.554688 182.570312 134.378906 182.773438 133.199219 182.949219 C 132.015625 183.125 130.832031 183.269531 129.644531 183.386719 C 128.457031 183.503906 127.265625 183.589844 126.074219 183.648438 C 124.882812 183.707031 123.6875 183.738281 122.496094 183.738281 C 121.300781 183.738281 120.109375 183.707031 118.914062 183.648438 C 117.722656 183.589844 116.53125 183.503906 115.34375 183.386719 C 114.15625 183.269531 112.972656 183.125 111.792969 182.949219 C 110.609375 182.773438 109.433594 182.570312 108.261719 182.335938 C 107.09375 182.105469 105.929688 181.84375 104.769531 181.550781 C 103.613281 181.261719 102.460938 180.945312 101.320312 180.597656 C 100.175781 180.25 99.042969 179.875 97.917969 179.472656 C 96.796875 179.070312 95.683594 178.640625 94.578125 178.183594 C 93.476562 177.730469 92.386719 177.246094 91.304688 176.734375 C 90.226562 176.222656 89.160156 175.6875 88.109375 175.125 C 87.054688 174.5625 86.015625 173.972656 84.992188 173.359375 C 83.96875 172.746094 82.960938 172.109375 81.96875 171.445312 C 80.976562 170.78125 80 170.09375 79.039062 169.382812 C 78.082031 168.671875 77.140625 167.9375 76.21875 167.179688 C 75.292969 166.421875 74.390625 165.644531 73.507812 164.839844 C 72.621094 164.039062 71.757812 163.214844 70.914062 162.371094 C 70.070312 161.527344 69.246094 160.664062 68.445312 159.777344 C 67.640625 158.894531 66.863281 157.992188 66.105469 157.066406 C 65.347656 156.144531 64.613281 155.203125 63.902344 154.246094 C 63.191406 153.285156 62.503906 152.3125 61.839844 151.316406 C 61.179688 150.324219 60.539062 149.316406 59.925781 148.292969 C 59.3125 147.269531 58.722656 146.230469 58.160156 145.179688 C 57.597656 144.125 57.0625 143.058594 56.550781 141.980469 C 56.039062 140.902344 55.558594 139.808594 55.101562 138.707031 C 54.644531 137.601562 54.214844 136.488281 53.8125 135.367188 C 53.410156 134.242188 53.035156 133.109375 52.6875 131.964844 C 52.34375 130.824219 52.023438 129.671875 51.734375 128.515625 C 51.441406 127.355469 51.183594 126.191406 50.949219 125.023438 C 50.714844 123.851562 50.511719 122.675781 50.335938 121.496094 C 50.160156 120.3125 50.015625 119.128906 49.898438 117.941406 C 49.78125 116.753906 49.695312 115.5625 49.636719 114.371094 C 49.578125 113.175781 49.546875 111.984375 49.546875 110.789062 C 49.546875 109.597656 49.578125 108.402344 49.636719 107.210938 C 49.695312 106.019531 49.78125 104.828125 49.898438 103.640625 C 50.015625 102.453125 50.160156 101.269531 50.335938 100.085938 C 50.511719 98.90625 50.714844 97.730469 50.949219 96.558594 C 51.183594 95.386719 51.441406 94.222656 51.734375 93.066406 C 52.023438 91.90625 52.34375 90.757812 52.6875 89.613281 C 53.035156 88.472656 53.410156 87.339844 53.8125 86.214844 C 54.214844 85.089844 54.644531 83.976562 55.101562 82.875 C 55.558594 81.773438 56.039062 80.679688 56.550781 79.601562 C 57.0625 78.523438 57.597656 77.457031 58.160156 76.402344 C 58.722656 75.351562 59.3125 74.3125 59.925781 73.289062 C 60.539062 72.265625 61.179688 71.257812 61.839844 70.261719 C 62.503906 69.269531 63.191406 68.292969 63.902344 67.335938 C 64.613281 66.378906 65.347656 65.4375 66.105469 64.511719 C 66.863281 63.589844 67.640625 62.6875 68.445312 61.800781 C 69.246094 60.917969 70.070312 60.054688 70.914062 59.210938 C 71.757812 58.363281 72.621094 57.542969 73.507812 56.738281 C 74.390625 55.9375 75.292969 55.160156 76.21875 54.402344 C 77.140625 53.644531 78.082031 52.910156 79.039062 52.199219 C 80 51.488281 80.976562 50.800781 81.96875 50.136719 C 82.960938 49.472656 83.96875 48.835938 84.992188 48.222656 C 86.015625 47.609375 87.054688 47.019531 88.109375 46.457031 C 89.160156 45.894531 90.226562 45.355469 91.304688 44.847656 C 92.386719 44.335938 93.476562 43.851562 94.578125 43.394531 C 95.683594 42.9375 96.796875 42.507812 97.917969 42.105469 C 99.042969 41.707031 100.175781 41.332031 101.320312 40.984375 C 102.460938 40.636719 103.613281 40.320312 104.769531 40.03125 C 105.929688 39.738281 107.09375 39.476562 108.261719 39.246094 C 109.433594 39.011719 110.609375 38.808594 111.792969 38.632812 C 112.972656 38.457031 114.15625 38.3125 115.34375 38.195312 C 116.53125 38.078125 117.722656 37.988281 118.914062 37.929688 C 120.109375 37.871094 121.300781 37.84375 122.496094 37.84375 C 123.6875 37.84375 124.882812 37.871094 126.074219 37.929688 C 127.265625 37.988281 128.457031 38.078125 129.644531 38.195312 C 130.832031 38.3125 132.015625 38.457031 133.199219 38.632812 C 134.378906 38.808594 135.554688 39.011719 136.726562 39.246094 C 137.898438 39.476562 139.0625 39.738281 140.21875 40.03125 C 141.378906 40.320312 142.527344 40.636719 143.671875 40.984375 C 144.8125 41.332031 145.945312 41.707031 147.070312 42.105469 C 148.195312 42.507812 149.308594 42.9375 150.410156 43.394531 C 151.511719 43.851562 152.605469 44.335938 153.683594 44.847656 C 154.761719 45.355469 155.828125 45.894531 156.882812 46.457031 C 157.933594 47.019531 158.972656 47.609375 159.996094 48.222656 C 161.019531 48.835938 162.03125 49.472656 163.023438 50.136719 C 164.015625 50.800781 164.992188 51.488281 165.949219 52.199219 C 166.910156 52.910156 167.847656 53.644531 168.773438 54.402344 C 169.695312 55.160156 170.597656 55.9375 171.484375 56.738281 C 172.367188 57.542969 173.230469 58.363281 174.078125 59.210938 C 174.921875 60.054688 175.742188 60.917969 176.546875 61.800781 C 177.347656 62.6875 178.125 63.589844 178.882812 64.511719 C 179.640625 65.4375 180.375 66.378906 181.085938 67.335938 C 181.796875 68.292969 182.484375 69.269531 183.148438 70.261719 C 183.8125 71.257812 184.449219 72.265625 185.0625 73.289062 C 185.675781 74.3125 186.265625 75.351562 186.828125 76.402344 C 187.390625 77.457031 187.929688 78.523438 188.4375 79.601562 C 188.949219 80.679688 189.433594 81.773438 189.890625 82.875 C 190.347656 83.976562 190.777344 85.089844 191.179688 86.214844 C 191.582031 87.339844 191.953125 88.472656 192.300781 89.613281 C 192.648438 90.757812 192.964844 91.90625 193.257812 93.066406 C 193.546875 94.222656 193.808594 95.386719 194.039062 96.558594 C 194.273438 97.730469 194.476562 98.90625 194.652344 100.085938 C 194.828125 101.269531 194.972656 102.453125 195.089844 103.640625 C 195.207031 104.828125 195.296875 106.019531 195.355469 107.210938 C 195.414062 108.402344 195.441406 109.597656 195.441406 110.789062 Z M 195.441406 110.789062 " fill-opacity="1" fill-rule="nonzero"/></g><path fill="#000000" d="M 159.09375 32.28125 C 104.269531 0.0742188 34.609375 39.410156 34 102.917969 C 33.410156 164.933594 99.09375 204.992188 153.792969 177.695312 L 94.070312 89.902344 L 94.070312 144.242188 C 94.070312 150.265625 82.539062 150.265625 82.539062 144.242188 L 82.539062 71.394531 C 82.539062 66.613281 91.425781 66.222656 93.945312 70.375 L 162.015625 173.015625 C 213.152344 140.105469 212.464844 63.632812 159.09375 32.28125 Z M 151.402344 135.125 L 139.835938 117.472656 L 139.835938 69.140625 C 139.835938 64.632812 151.402344 64.632812 151.402344 69.140625 Z M 151.402344 135.125 " fill-opacity="1" fill-rule="nonzero"/></svg>